<svg width="203" height="45" viewBox="0 0 203 45" fill="none" xmlns="http://www.w3.org/2000/svg">
<path d="M22.1541 0.447021C27.9784 0.447021 33.5049 2.75503 37.719 6.94541C41.9673 11.1702 44.3049 16.7538 44.3075 22.6679C44.3075 34.9218 34.3693 44.8915 22.1541 44.8915C31.5731 44.8915 36.6542 37.0659 36.6542 29.703C36.6542 28.6719 36.5594 27.6594 36.3749 26.6785C36.7333 25.4042 36.9283 24.0585 36.9283 22.6706C36.9283 14.6361 30.1632 7.84958 22.1541 7.84958C17.2469 7.84958 15.012 11.8972 15.0173 15.6593C15.0173 17.65 15.634 19.4531 16.7567 20.7327C17.998 22.1471 19.8085 22.6706 22.1383 22.6706V28.9257C22.1383 29.5655 21.598 30.0705 20.9602 30.0335C15.9977 29.7374 12.9406 27.5853 11.2144 25.6157C9.54087 23.7043 8.41554 21.3196 7.92271 18.7049C7.87791 18.459 7.83574 18.2132 7.80148 17.9647C7.79885 17.962 7.79885 17.9567 7.79885 17.9541C7.76458 17.7188 7.73823 17.4835 7.71451 17.2482C7.71324 17.238 7.71197 17.2272 7.7107 17.2163C7.70934 17.2047 7.70797 17.193 7.7066 17.1821C7.68552 16.9679 7.66971 16.7485 7.65917 16.5317L7.65126 16.4128C7.63808 16.1616 7.63281 15.9104 7.63281 15.6566C7.63281 8.28316 12.7218 0.447021 22.1541 0.447021Z" fill="white"/>
<path d="M23.3131 15.2997C28.2809 15.5985 31.3432 17.7558 33.0721 19.728C35.3807 22.3665 36.6537 25.9092 36.651 29.7056C36.651 37.0685 31.5699 44.8941 22.1508 44.8941C16.3265 44.8941 10.8 42.5861 6.58596 38.3957C2.34027 34.171 0 28.5873 0 22.6706C0 20.8517 0.163397 19.3949 0.440118 18.2555C2.48522 8.10867 11.4431 0.447021 22.1535 0.447021C12.7213 0.447021 7.63222 8.28316 7.63486 15.6593C7.63486 16.7009 7.73237 17.7214 7.91949 18.7102C7.56897 19.9713 7.37922 21.2984 7.37922 22.6706C7.37922 30.7023 14.1444 37.4889 22.1535 37.4889C27.0448 37.4889 29.2744 33.4519 29.2744 29.703C29.2744 27.707 28.6551 25.8986 27.5298 24.6137C26.2858 23.194 24.47 22.6679 22.135 22.6679V16.4075C22.135 15.7677 22.6753 15.2627 23.3131 15.2997Z" fill="#48B8ED"/>
<path d="M49.5527 23.447V9.23804H58.6348V11.7576H52.3262V15.1658H57.3848V17.6462H52.3262V20.9373H59.0547V23.447H49.5527ZM70.2266 23.447L67.0332 18.4763H67.0039L63.791 23.447H60.5098L65.1582 16.3181L60.6465 9.23804H63.8691L66.9941 14.1306H67.043L70.1582 9.23804H73.3711L68.8789 16.3083L73.5176 23.447H70.2266ZM75.5977 23.447V9.23804H80.8516C81.6914 9.23804 82.4238 9.35522 83.0684 9.5896C83.7129 9.82397 84.2305 10.156 84.6211 10.5857C85.0117 11.0154 85.3047 11.5134 85.5 12.0798C85.6953 12.6462 85.793 13.281 85.793 13.9744C85.793 14.7458 85.666 15.4197 85.4219 16.0056C85.168 16.5916 84.8164 17.0798 84.3574 17.4509C83.8984 17.8318 83.3516 18.115 82.7168 18.3005C82.082 18.4958 81.3691 18.5837 80.5879 18.5837H78.3711V23.447H75.5977ZM78.3711 16.0935H80.2363C81.0957 16.0935 81.75 15.8982 82.1992 15.5076C82.6484 15.1169 82.8828 14.5896 82.8828 13.9158C82.8828 13.2517 82.6582 12.7146 82.2188 12.324C81.7793 11.9333 81.1543 11.738 80.3535 11.738H78.3711V16.0935ZM88.0684 23.447V9.23804H97.1504V11.7576H90.8418V15.1658H95.9004V17.6462H90.8418V20.9373H97.5703V23.447H88.0684ZM110.988 23.447H107.658L104.475 18.5837H102.844V23.447H100.07V9.23804H105.441C106.271 9.23804 107.004 9.35522 107.648 9.5896C108.293 9.82397 108.811 10.156 109.201 10.5857C109.592 11.0154 109.895 11.5134 110.09 12.0798C110.285 12.6462 110.393 13.281 110.393 13.9744C110.393 14.7166 110.266 15.3806 110.031 15.9568C109.797 16.533 109.465 17.0115 109.035 17.3826C108.605 17.7634 108.088 18.0564 107.482 18.2517V18.2908L110.988 23.447ZM102.844 11.738V16.1033H104.816C105.666 16.1033 106.32 15.908 106.789 15.5173C107.248 15.1267 107.482 14.5896 107.482 13.9158C107.482 13.2517 107.258 12.7146 106.809 12.324C106.359 11.9333 105.734 11.738 104.934 11.738H102.844ZM115.725 23.447V11.7576H111.809V9.23804H122.463V11.7576H118.527V23.447H115.725ZM129.875 23.447V9.23804H139.299V11.7576H132.648V15.5564H138.195V18.0662H132.648V23.447H129.875ZM141.721 23.447V9.23804H144.553V23.447H141.721ZM156.926 9.23804H159.738V23.447H156.857L150.607 14.033H150.568V23.447H147.766V9.23804H150.568L156.887 18.8376H156.926V9.23804ZM162.863 23.447V9.23804H167.561C168.664 9.23804 169.68 9.41382 170.598 9.76538C171.516 10.1169 172.297 10.6052 172.932 11.2302C173.566 11.8552 174.055 12.6072 174.406 13.4861C174.758 14.365 174.934 15.3318 174.934 16.3669C174.934 17.4119 174.758 18.3689 174.426 19.238C174.094 20.1169 173.615 20.8591 172.99 21.4841C172.365 22.1091 171.604 22.5876 170.686 22.9294C169.768 23.281 168.742 23.447 167.619 23.447H162.863ZM165.637 20.9373H167.443C168.117 20.9373 168.742 20.8201 169.318 20.5857C169.885 20.3513 170.373 20.0388 170.764 19.6287C171.154 19.2185 171.467 18.74 171.682 18.1736C171.896 17.6169 172.014 17.0115 172.014 16.3669C172.014 15.488 171.818 14.697 171.447 13.9939C171.076 13.2908 170.549 12.7439 169.885 12.3533C169.211 11.9626 168.459 11.7576 167.619 11.7576H165.637V20.9373ZM177.463 23.447V9.23804H186.545V11.7576H180.236V15.1658H185.295V17.6462H180.236V20.9373H186.965V23.447H177.463ZM200.383 23.447H197.053L193.869 18.5837H192.238V23.447H189.465V9.23804H194.836C195.666 9.23804 196.398 9.35522 197.043 9.5896C197.688 9.82397 198.205 10.156 198.596 10.5857C198.986 11.0154 199.289 11.5134 199.484 12.0798C199.68 12.6462 199.787 13.281 199.787 13.9744C199.787 14.7166 199.66 15.3806 199.426 15.9568C199.191 16.533 198.859 17.0115 198.43 17.3826C198 17.7634 197.482 18.0564 196.877 18.2517V18.2908L200.383 23.447ZM192.238 11.738V16.1033H194.211C195.061 16.1033 195.715 15.908 196.184 15.5173C196.643 15.1267 196.877 14.5896 196.877 13.9158C196.877 13.2517 196.652 12.7146 196.203 12.324C195.754 11.9333 195.129 11.738 194.328 11.738H192.238Z" fill="white"/>
<path d="M53.5195 33.9294C54.0645 34.0701 54.4863 34.322 54.7852 34.697C55.0781 35.072 55.2305 35.5349 55.2305 36.0916C55.2305 36.4373 55.1719 36.7537 55.0547 37.0349C54.9375 37.322 54.7676 37.5681 54.5449 37.7791C54.3223 37.99 54.0293 38.1541 53.6777 38.2712C53.3262 38.3884 52.9219 38.447 52.4648 38.447H48.9375V29.9216H52.0137C52.916 29.9216 53.6074 30.1033 54.082 30.4548C54.5566 30.8123 54.7969 31.3279 54.7969 32.0017C54.7969 32.2712 54.7559 32.5232 54.6738 32.7576C54.5918 32.9919 54.4512 33.2146 54.2578 33.4255C54.0586 33.6365 53.8125 33.7947 53.5195 33.906V33.9294ZM50.5957 31.4158V33.4138H51.8027C52.0371 33.4138 52.248 33.3845 52.4355 33.3142C52.623 33.2439 52.7754 33.1326 52.8984 32.9802C53.0215 32.8279 53.0859 32.6345 53.0859 32.406C53.0859 32.2068 53.0391 32.031 52.9453 31.8845C52.8516 31.7439 52.6992 31.6267 52.4883 31.5447C52.2773 31.4626 52.0078 31.4158 51.6914 31.4158H50.5957ZM51.9551 36.9646C52.2598 36.9646 52.5234 36.9294 52.7461 36.8474C52.9688 36.7654 53.1504 36.6482 53.2793 36.4841C53.4082 36.3201 53.4727 36.1208 53.4727 35.8806C53.4727 35.5408 53.3438 35.2712 53.0859 35.072C52.8281 34.8728 52.459 34.7732 51.9727 34.7732H50.5957V36.9646H51.9551ZM61.0781 29.9216H63.0293L60.1934 34.7029V38.447H58.4883V34.7029L55.6699 29.9216H57.6035L59.3379 33.033H59.3613L61.0781 29.9216ZM69.8145 38.5466C69.2461 38.5466 68.6953 38.4353 68.1621 38.2126C67.6289 37.99 67.1426 37.656 66.709 37.2048L67.7227 35.9568C67.875 36.1384 68.0449 36.2966 68.2266 36.4314C68.4082 36.572 68.5898 36.6833 68.7715 36.7654C68.9531 36.8533 69.1348 36.9177 69.3164 36.9587C69.4922 37.0056 69.668 37.0232 69.8438 37.0232C70.1074 37.0232 70.3301 36.988 70.5176 36.906C70.7051 36.8298 70.8398 36.7244 70.9336 36.5896C71.0215 36.4607 71.0684 36.3025 71.0684 36.1208C71.0684 35.9978 71.0449 35.8865 71.0098 35.7869C70.9688 35.6931 70.916 35.6052 70.8457 35.5291C70.7754 35.4587 70.6758 35.3826 70.5469 35.3123C70.418 35.2419 70.2832 35.1775 70.1426 35.1189C70.002 35.0603 69.8145 34.9958 69.5859 34.9138C69.375 34.8435 69.1934 34.7732 69.0352 34.7087C68.8711 34.6501 68.7012 34.5681 68.5137 34.4744C68.3262 34.3806 68.1621 34.281 68.0273 34.1873C67.8867 34.0935 67.752 33.9763 67.6172 33.8416C67.4824 33.7068 67.3711 33.5662 67.2891 33.4138C67.207 33.2615 67.1367 33.0916 67.084 32.8923C67.0312 32.6931 67.0078 32.4822 67.0078 32.2595C67.0078 31.8142 67.125 31.4041 67.3711 31.0291C67.6113 30.6599 67.9395 30.3669 68.3613 30.156C68.7773 29.9451 69.2402 29.8337 69.7441 29.822C70.7754 29.8103 71.7305 30.1677 72.6152 30.8943L71.6426 32.1658C70.957 31.6091 70.3359 31.3279 69.7852 31.3279C69.4805 31.3279 69.2344 31.4041 69.0469 31.5564C68.8594 31.7087 68.7598 31.9197 68.7598 32.1833C68.7598 32.2888 68.7773 32.3884 68.8184 32.4705C68.8535 32.5583 68.9062 32.6345 68.9766 32.7048C69.041 32.7751 69.1406 32.8455 69.2695 32.9158C69.3984 32.9861 69.5332 33.0505 69.6621 33.1091C69.791 33.1677 69.9727 33.238 70.1953 33.3201C70.9043 33.6013 71.373 33.8005 71.6074 33.9236C72.1348 34.2166 72.4922 34.574 72.668 34.9958C72.7734 35.2654 72.832 35.5701 72.832 35.9216C72.832 36.2849 72.7676 36.613 72.6504 36.9119C72.5273 37.2107 72.3691 37.4568 72.1699 37.656C71.9707 37.8552 71.7363 38.0193 71.4727 38.1599C71.209 38.3005 70.9395 38.4001 70.6641 38.4587C70.3828 38.5173 70.1016 38.5466 69.8145 38.5466ZM74.2617 38.447V29.9216H77.4141C77.918 29.9216 78.3574 29.9919 78.7441 30.1326C79.1309 30.2732 79.4414 30.4724 79.6758 30.7302C79.9102 30.988 80.0859 31.2869 80.2031 31.6267C80.3203 31.9666 80.3789 32.3474 80.3789 32.7634C80.3789 33.2263 80.3027 33.6306 80.1562 33.9822C80.0039 34.3337 79.793 34.6267 79.5176 34.8494C79.2422 35.0779 78.9141 35.2478 78.5332 35.3591C78.1523 35.4763 77.7246 35.5291 77.2559 35.5291H75.9258V38.447H74.2617ZM75.9258 34.0349H77.0449C77.5605 34.0349 77.9531 33.9177 78.2227 33.6833C78.4922 33.449 78.6328 33.1326 78.6328 32.7283C78.6328 32.3298 78.498 32.0076 78.2344 31.7732C77.9707 31.5388 77.5957 31.4216 77.1152 31.4216H75.9258V34.0349ZM81.75 38.447V29.9216H83.4434V33.613H86.9297V29.9216H88.6289V38.447H86.9297V35.1189H83.4434V38.447H81.75ZM90.498 38.447V29.9216H95.9473V31.4333H92.1621V33.4783H95.1973V34.9666H92.1621V36.9412H96.1992V38.447H90.498ZM104.25 38.447H102.252L100.342 35.5291H99.3633V38.447H97.6992V29.9216H100.922C101.42 29.9216 101.859 29.9919 102.246 30.1326C102.633 30.2732 102.943 30.4724 103.178 30.7302C103.412 30.988 103.594 31.2869 103.711 31.6267C103.828 31.9666 103.893 32.3474 103.893 32.7634C103.893 33.2087 103.816 33.6072 103.676 33.9529C103.535 34.2986 103.336 34.5857 103.078 34.8083C102.82 35.0369 102.51 35.2126 102.146 35.3298V35.3533L104.25 38.447ZM99.3633 31.4216V34.0408H100.547C101.057 34.0408 101.449 33.9236 101.73 33.6892C102.006 33.4548 102.146 33.1326 102.146 32.7283C102.146 32.3298 102.012 32.0076 101.742 31.7732C101.473 31.5388 101.098 31.4216 100.617 31.4216H99.3633ZM105.533 38.447V29.9216H110.982V31.4333H107.197V33.4783H110.232V34.9666H107.197V36.9412H111.234V38.447H105.533Z" fill="#48B8ED"/>
</svg>
