<svg width="203" height="45" viewBox="0 0 203 45" fill="none" xmlns="http://www.w3.org/2000/svg">
<path d="M22.1541 0C27.9784 0 33.5049 2.30801 37.719 6.49839C41.9673 10.7232 44.3049 16.3068 44.3075 22.2209C44.3075 34.4748 34.3693 44.4445 22.1541 44.4445C31.5731 44.4445 36.6542 36.6189 36.6542 29.256C36.6542 28.2249 36.5594 27.2124 36.3749 26.2315C36.7333 24.9572 36.9283 23.6115 36.9283 22.2236C36.9283 14.1891 30.1632 7.40256 22.1541 7.40256C17.2469 7.40256 15.012 11.4502 15.0173 15.2123C15.0173 17.203 15.634 19.0061 16.7567 20.2857C17.998 21.7001 19.8085 22.2236 22.1383 22.2236V28.4787C22.1383 29.1185 21.598 29.6235 20.9602 29.5865C15.9977 29.2904 12.9406 27.1383 11.2144 25.1687C9.54087 23.2573 8.41554 20.8726 7.92271 18.2579C7.87791 18.012 7.83574 17.7662 7.80148 17.5177C7.79885 17.515 7.79885 17.5097 7.79885 17.5071C7.76458 17.2718 7.73823 17.0365 7.71451 16.8012C7.71324 16.791 7.71197 16.7801 7.7107 16.7693C7.70934 16.7577 7.70797 16.746 7.7066 16.7351C7.68552 16.5209 7.66971 16.3015 7.65917 16.0847L7.65126 15.9658C7.63808 15.7146 7.63281 15.4634 7.63281 15.2096C7.63281 7.83614 12.7218 0 22.1541 0Z" fill="#303A5D"/>
<path d="M23.3131 14.8527C28.2809 15.1515 31.3432 17.3088 33.0721 19.281C35.3807 21.9195 36.6537 25.4622 36.651 29.2586C36.651 36.6215 31.5699 44.4471 22.1508 44.4471C16.3265 44.4471 10.8 42.1391 6.58596 37.9487C2.34027 33.724 0 28.1403 0 22.2236C0 20.4047 0.163397 18.9479 0.440118 17.8085C2.48522 7.66165 11.4431 0 22.1535 0C12.7213 0 7.63222 7.83614 7.63486 15.2123C7.63486 16.2539 7.73237 17.2744 7.91949 18.2632C7.56897 19.5243 7.37922 20.8514 7.37922 22.2236C7.37922 30.2553 14.1444 37.0419 22.1535 37.0419C27.0448 37.0419 29.2744 33.0049 29.2744 29.256C29.2744 27.26 28.6551 25.4516 27.5298 24.1667C26.2858 22.747 24.47 22.2209 22.135 22.2209V15.9605C22.135 15.3207 22.6753 14.8157 23.3131 14.8527Z" fill="#48B8ED"/>
<path d="M49.5527 23V8.79102H58.6348V11.3105H52.3262V14.7188H57.3848V17.1992H52.3262V20.4902H59.0547V23H49.5527ZM70.2266 23L67.0332 18.0293H67.0039L63.791 23H60.5098L65.1582 15.8711L60.6465 8.79102H63.8691L66.9941 13.6836H67.043L70.1582 8.79102H73.3711L68.8789 15.8613L73.5176 23H70.2266ZM75.5977 23V8.79102H80.8516C81.6914 8.79102 82.4238 8.9082 83.0684 9.14258C83.7129 9.37695 84.2305 9.70898 84.6211 10.1387C85.0117 10.5684 85.3047 11.0664 85.5 11.6328C85.6953 12.1992 85.793 12.834 85.793 13.5273C85.793 14.2988 85.666 14.9727 85.4219 15.5586C85.168 16.1445 84.8164 16.6328 84.3574 17.0039C83.8984 17.3848 83.3516 17.668 82.7168 17.8535C82.082 18.0488 81.3691 18.1367 80.5879 18.1367H78.3711V23H75.5977ZM78.3711 15.6465H80.2363C81.0957 15.6465 81.75 15.4512 82.1992 15.0605C82.6484 14.6699 82.8828 14.1426 82.8828 13.4688C82.8828 12.8047 82.6582 12.2676 82.2188 11.877C81.7793 11.4863 81.1543 11.291 80.3535 11.291H78.3711V15.6465ZM88.0684 23V8.79102H97.1504V11.3105H90.8418V14.7188H95.9004V17.1992H90.8418V20.4902H97.5703V23H88.0684ZM110.988 23H107.658L104.475 18.1367H102.844V23H100.07V8.79102H105.441C106.271 8.79102 107.004 8.9082 107.648 9.14258C108.293 9.37695 108.811 9.70898 109.201 10.1387C109.592 10.5684 109.895 11.0664 110.09 11.6328C110.285 12.1992 110.393 12.834 110.393 13.5273C110.393 14.2695 110.266 14.9336 110.031 15.5098C109.797 16.0859 109.465 16.5645 109.035 16.9355C108.605 17.3164 108.088 17.6094 107.482 17.8047V17.8438L110.988 23ZM102.844 11.291V15.6562H104.816C105.666 15.6562 106.32 15.4609 106.789 15.0703C107.248 14.6797 107.482 14.1426 107.482 13.4688C107.482 12.8047 107.258 12.2676 106.809 11.877C106.359 11.4863 105.734 11.291 104.934 11.291H102.844ZM115.725 23V11.3105H111.809V8.79102H122.463V11.3105H118.527V23H115.725ZM129.875 23V8.79102H139.299V11.3105H132.648V15.1094H138.195V17.6191H132.648V23H129.875ZM141.721 23V8.79102H144.553V23H141.721ZM156.926 8.79102H159.738V23H156.857L150.607 13.5859H150.568V23H147.766V8.79102H150.568L156.887 18.3906H156.926V8.79102ZM162.863 23V8.79102H167.561C168.664 8.79102 169.68 8.9668 170.598 9.31836C171.516 9.66992 172.297 10.1582 172.932 10.7832C173.566 11.4082 174.055 12.1602 174.406 13.0391C174.758 13.918 174.934 14.8848 174.934 15.9199C174.934 16.9648 174.758 17.9219 174.426 18.791C174.094 19.6699 173.615 20.4121 172.99 21.0371C172.365 21.6621 171.604 22.1406 170.686 22.4824C169.768 22.834 168.742 23 167.619 23H162.863ZM165.637 20.4902H167.443C168.117 20.4902 168.742 20.373 169.318 20.1387C169.885 19.9043 170.373 19.5918 170.764 19.1816C171.154 18.7715 171.467 18.293 171.682 17.7266C171.896 17.1699 172.014 16.5645 172.014 15.9199C172.014 15.041 171.818 14.25 171.447 13.5469C171.076 12.8438 170.549 12.2969 169.885 11.9062C169.211 11.5156 168.459 11.3105 167.619 11.3105H165.637V20.4902ZM177.463 23V8.79102H186.545V11.3105H180.236V14.7188H185.295V17.1992H180.236V20.4902H186.965V23H177.463ZM200.383 23H197.053L193.869 18.1367H192.238V23H189.465V8.79102H194.836C195.666 8.79102 196.398 8.9082 197.043 9.14258C197.688 9.37695 198.205 9.70898 198.596 10.1387C198.986 10.5684 199.289 11.0664 199.484 11.6328C199.68 12.1992 199.787 12.834 199.787 13.5273C199.787 14.2695 199.66 14.9336 199.426 15.5098C199.191 16.0859 198.859 16.5645 198.43 16.9355C198 17.3164 197.482 17.6094 196.877 17.8047V17.8438L200.383 23ZM192.238 11.291V15.6562H194.211C195.061 15.6562 195.715 15.4609 196.184 15.0703C196.643 14.6797 196.877 14.1426 196.877 13.4688C196.877 12.8047 196.652 12.2676 196.203 11.877C195.754 11.4863 195.129 11.291 194.328 11.291H192.238Z" fill="#303A5D"/>
<path d="M53.5195 33.4824C54.0645 33.623 54.4863 33.875 54.7852 34.25C55.0781 34.625 55.2305 35.0879 55.2305 35.6445C55.2305 35.9902 55.1719 36.3066 55.0547 36.5879C54.9375 36.875 54.7676 37.1211 54.5449 37.332C54.3223 37.543 54.0293 37.707 53.6777 37.8242C53.3262 37.9414 52.9219 38 52.4648 38H48.9375V29.4746H52.0137C52.916 29.4746 53.6074 29.6562 54.082 30.0078C54.5566 30.3652 54.7969 30.8809 54.7969 31.5547C54.7969 31.8242 54.7559 32.0762 54.6738 32.3105C54.5918 32.5449 54.4512 32.7676 54.2578 32.9785C54.0586 33.1895 53.8125 33.3477 53.5195 33.459V33.4824ZM50.5957 30.9688V32.9668H51.8027C52.0371 32.9668 52.248 32.9375 52.4355 32.8672C52.623 32.7969 52.7754 32.6855 52.8984 32.5332C53.0215 32.3809 53.0859 32.1875 53.0859 31.959C53.0859 31.7598 53.0391 31.584 52.9453 31.4375C52.8516 31.2969 52.6992 31.1797 52.4883 31.0977C52.2773 31.0156 52.0078 30.9688 51.6914 30.9688H50.5957ZM51.9551 36.5176C52.2598 36.5176 52.5234 36.4824 52.7461 36.4004C52.9688 36.3184 53.1504 36.2012 53.2793 36.0371C53.4082 35.873 53.4727 35.6738 53.4727 35.4336C53.4727 35.0938 53.3438 34.8242 53.0859 34.625C52.8281 34.4258 52.459 34.3262 51.9727 34.3262H50.5957V36.5176H51.9551ZM61.0781 29.4746H63.0293L60.1934 34.2559V38H58.4883V34.2559L55.6699 29.4746H57.6035L59.3379 32.5859H59.3613L61.0781 29.4746ZM69.8145 38.0996C69.2461 38.0996 68.6953 37.9883 68.1621 37.7656C67.6289 37.543 67.1426 37.209 66.709 36.7578L67.7227 35.5098C67.875 35.6914 68.0449 35.8496 68.2266 35.9844C68.4082 36.125 68.5898 36.2363 68.7715 36.3184C68.9531 36.4062 69.1348 36.4707 69.3164 36.5117C69.4922 36.5586 69.668 36.5762 69.8438 36.5762C70.1074 36.5762 70.3301 36.541 70.5176 36.459C70.7051 36.3828 70.8398 36.2773 70.9336 36.1426C71.0215 36.0137 71.0684 35.8555 71.0684 35.6738C71.0684 35.5508 71.0449 35.4395 71.0098 35.3398C70.9688 35.2461 70.916 35.1582 70.8457 35.082C70.7754 35.0117 70.6758 34.9355 70.5469 34.8652C70.418 34.7949 70.2832 34.7305 70.1426 34.6719C70.002 34.6133 69.8145 34.5488 69.5859 34.4668C69.375 34.3965 69.1934 34.3262 69.0352 34.2617C68.8711 34.2031 68.7012 34.1211 68.5137 34.0273C68.3262 33.9336 68.1621 33.834 68.0273 33.7402C67.8867 33.6465 67.752 33.5293 67.6172 33.3945C67.4824 33.2598 67.3711 33.1191 67.2891 32.9668C67.207 32.8145 67.1367 32.6445 67.084 32.4453C67.0312 32.2461 67.0078 32.0352 67.0078 31.8125C67.0078 31.3672 67.125 30.957 67.3711 30.582C67.6113 30.2129 67.9395 29.9199 68.3613 29.709C68.7773 29.498 69.2402 29.3867 69.7441 29.375C70.7754 29.3633 71.7305 29.7207 72.6152 30.4473L71.6426 31.7188C70.957 31.1621 70.3359 30.8809 69.7852 30.8809C69.4805 30.8809 69.2344 30.957 69.0469 31.1094C68.8594 31.2617 68.7598 31.4727 68.7598 31.7363C68.7598 31.8418 68.7773 31.9414 68.8184 32.0234C68.8535 32.1113 68.9062 32.1875 68.9766 32.2578C69.041 32.3281 69.1406 32.3984 69.2695 32.4688C69.3984 32.5391 69.5332 32.6035 69.6621 32.6621C69.791 32.7207 69.9727 32.791 70.1953 32.873C70.9043 33.1543 71.373 33.3535 71.6074 33.4766C72.1348 33.7695 72.4922 34.127 72.668 34.5488C72.7734 34.8184 72.832 35.123 72.832 35.4746C72.832 35.8379 72.7676 36.166 72.6504 36.4648C72.5273 36.7637 72.3691 37.0098 72.1699 37.209C71.9707 37.4082 71.7363 37.5723 71.4727 37.7129C71.209 37.8535 70.9395 37.9531 70.6641 38.0117C70.3828 38.0703 70.1016 38.0996 69.8145 38.0996ZM74.2617 38V29.4746H77.4141C77.918 29.4746 78.3574 29.5449 78.7441 29.6855C79.1309 29.8262 79.4414 30.0254 79.6758 30.2832C79.9102 30.541 80.0859 30.8398 80.2031 31.1797C80.3203 31.5195 80.3789 31.9004 80.3789 32.3164C80.3789 32.7793 80.3027 33.1836 80.1562 33.5352C80.0039 33.8867 79.793 34.1797 79.5176 34.4023C79.2422 34.6309 78.9141 34.8008 78.5332 34.9121C78.1523 35.0293 77.7246 35.082 77.2559 35.082H75.9258V38H74.2617ZM75.9258 33.5879H77.0449C77.5605 33.5879 77.9531 33.4707 78.2227 33.2363C78.4922 33.002 78.6328 32.6855 78.6328 32.2812C78.6328 31.8828 78.498 31.5605 78.2344 31.3262C77.9707 31.0918 77.5957 30.9746 77.1152 30.9746H75.9258V33.5879ZM81.75 38V29.4746H83.4434V33.166H86.9297V29.4746H88.6289V38H86.9297V34.6719H83.4434V38H81.75ZM90.498 38V29.4746H95.9473V30.9863H92.1621V33.0312H95.1973V34.5195H92.1621V36.4941H96.1992V38H90.498ZM104.25 38H102.252L100.342 35.082H99.3633V38H97.6992V29.4746H100.922C101.42 29.4746 101.859 29.5449 102.246 29.6855C102.633 29.8262 102.943 30.0254 103.178 30.2832C103.412 30.541 103.594 30.8398 103.711 31.1797C103.828 31.5195 103.893 31.9004 103.893 32.3164C103.893 32.7617 103.816 33.1602 103.676 33.5059C103.535 33.8516 103.336 34.1387 103.078 34.3613C102.82 34.5898 102.51 34.7656 102.146 34.8828V34.9062L104.25 38ZM99.3633 30.9746V33.5938H100.547C101.057 33.5938 101.449 33.4766 101.73 33.2422C102.006 33.0078 102.146 32.6855 102.146 32.2812C102.146 31.8828 102.012 31.5605 101.742 31.3262C101.473 31.0918 101.098 30.9746 100.617 30.9746H99.3633ZM105.533 38V29.4746H110.982V30.9863H107.197V33.0312H110.232V34.5195H107.197V36.4941H111.234V38H105.533Z" fill="#48B8ED"/>
</svg>
