<svg width="151" height="34" viewBox="0 0 151 34" fill="none" xmlns="http://www.w3.org/2000/svg">
<g clip-path="url(#clip0_2002_3886)">
<mask id="mask0_2002_3886" style="mask-type:luminance" maskUnits="userSpaceOnUse" x="0" y="0" width="151" height="34">
<path d="M150.5 0.0874023H0.5V33.0874H150.5V0.0874023Z" fill="white"/>
</mask>
<g mask="url(#mask0_2002_3886)">
<path d="M44.0685 25.3588C42.7611 24.875 41.5716 24.1437 40.5 23.165L42.9831 20.4465C43.3668 20.838 43.7807 21.1833 44.2246 21.4796C44.6687 21.7786 45.1154 22.0205 45.5594 22.2082C46.0034 22.3957 46.4474 22.5344 46.8886 22.6295C47.3299 22.7246 47.7602 22.7709 48.1795 22.7709C48.8318 22.7709 49.3827 22.6866 49.8377 22.5153C50.2926 22.344 50.6298 22.1157 50.8491 21.8276C51.0682 21.5394 51.1779 21.1968 51.1779 20.8081C51.1779 20.5363 51.1313 20.2943 51.0354 20.0796C50.9395 19.8676 50.8079 19.6799 50.6407 19.5196C50.4735 19.3591 50.2296 19.1988 49.9089 19.0411C49.5883 18.8834 49.2567 18.742 48.9113 18.6197C48.566 18.4974 48.111 18.3506 47.5464 18.1793C47.0394 18.019 46.5899 17.8695 46.198 17.7335C45.806 17.5976 45.3785 17.4263 44.9208 17.217C44.4631 17.0077 44.063 16.8011 43.7286 16.5918C43.3942 16.3825 43.0599 16.1323 42.731 15.8387C42.402 15.5451 42.1335 15.2353 41.9279 14.9063C41.7224 14.5773 41.5552 14.1995 41.4264 13.77C41.2975 13.3405 41.2318 12.8837 41.2318 12.3972C41.2318 11.4184 41.5278 10.5268 42.1225 9.71672C42.7172 8.90934 43.5258 8.27321 44.548 7.80835C45.5731 7.3435 46.7023 7.10427 47.9356 7.08796C50.4626 7.06349 52.8086 7.84097 54.971 9.42313L52.5866 12.1933C50.9121 10.9781 49.3937 10.3692 48.0343 10.3692C47.297 10.3692 46.6968 10.535 46.2336 10.8667C45.7704 11.1983 45.532 11.6522 45.5237 12.2313C45.5237 12.4624 45.5703 12.669 45.6663 12.8565C45.7622 13.0442 45.8911 13.2127 46.0527 13.3595C46.2144 13.509 46.4584 13.6612 46.779 13.8189C47.0997 13.9766 47.4203 14.118 47.7411 14.2403C48.0617 14.3626 48.4948 14.5175 49.0402 14.7052C50.7832 15.3086 51.9344 15.7463 52.4989 16.0181C53.8008 16.6489 54.6668 17.4263 55.0972 18.3533C55.3658 18.9324 55.5 19.6039 55.5 20.3705C55.5 21.1534 55.3521 21.871 55.0561 22.5207C54.7601 23.1704 54.3681 23.7115 53.8775 24.141C53.3869 24.5705 52.8223 24.9375 52.1756 25.2392C51.5287 25.541 50.8655 25.7585 50.1885 25.8889C49.5115 26.0195 48.8154 26.0874 48.1055 26.0874C46.7215 26.0847 45.3758 25.8428 44.0685 25.3588Z" fill="#49B8ED"/>
<path d="M58.5 7.0874H66.2304C67.4649 7.0874 68.5567 7.23501 69.5004 7.53286C70.4441 7.8307 71.2039 8.2498 71.7773 8.79541C72.3534 9.34103 72.7841 9.97099 73.0694 10.6879C73.3574 11.4049 73.5 12.2062 73.5 13.0892C73.5 14.0618 73.319 14.921 72.9541 15.6617C72.5893 16.405 72.0708 17.0139 71.3959 17.4936C70.7212 17.9734 69.9147 18.3318 68.9819 18.5691C68.0464 18.8089 67.0012 18.9275 65.8409 18.9275H62.5792V25.0874H58.5V7.0874ZM65.3252 15.7724C66.5898 15.7724 67.5555 15.5246 68.222 15.0291C68.8887 14.5336 69.2206 13.8615 69.2206 13.0127C69.2206 12.164 68.8969 11.4919 68.2494 10.9963C67.6021 10.5008 66.6858 10.253 65.498 10.253H62.582V15.7698H65.3252V15.7724Z" fill="#49B8ED"/>
<path d="M76.5 7.0874H80.4388V14.8815H88.5481V7.0874H92.5V25.0874H88.5481V18.0603H80.4388V25.0874H76.5V7.0874Z" fill="#49B8ED"/>
<path d="M97.5 7.0874H110.881V10.2794H101.587V14.5969H109.039V17.7387H101.587V21.9086H111.5V25.0874H97.5V7.0874Z" fill="#49B8ED"/>
<path d="M125.621 25.0848L120.956 18.9257H118.565V25.0848H114.5V7.0874H122.37C123.592 7.0874 124.67 7.23499 125.61 7.53279C126.55 7.83059 127.309 8.24963 127.886 8.79516C128.462 9.3407 128.896 9.97057 129.188 10.6874C129.481 11.4043 129.625 12.2054 129.625 13.0883C129.625 14.0291 129.451 14.8645 129.104 15.592C128.757 16.322 128.268 16.9255 127.646 17.4052C127.02 17.8822 126.26 18.2511 125.361 18.5067V18.5568L130.5 25.0874H125.621V25.0848ZM118.567 15.7844H121.458C122.706 15.7844 123.67 15.534 124.348 15.0358C125.025 14.5378 125.364 13.8631 125.364 13.0145C125.364 12.1658 125.037 11.4939 124.384 10.9984C123.73 10.5029 122.812 10.2552 121.63 10.2552H118.567V15.7844Z" fill="#49B8ED"/>
<path d="M132.5 7.0874H145.881V10.2794H136.588V14.5969H144.039V17.7387H136.588V21.9086H146.5V25.0874H132.5V7.0874Z" fill="#49B8ED"/>
<path d="M24.8635 14.4027C23.5899 12.9384 21.3339 11.3366 17.6742 11.1149C17.2044 11.0874 16.8064 11.4623 16.8064 11.9373V16.5854C18.5265 16.5854 19.8642 16.976 20.7806 18.0301C21.6096 18.984 22.0659 20.3266 22.0659 21.8087C22.0659 24.5921 20.4234 27.5894 16.82 27.5894C10.9199 27.5894 5.93612 22.5506 5.93612 16.5875C5.93612 15.5686 6.0759 14.5833 6.33412 13.647C6.19628 12.9129 6.12444 12.1552 6.12444 11.3818C6.1225 5.90539 9.87148 0.0874023 16.82 0.0874023C8.92987 0.0874023 2.33081 5.77584 0.824226 13.3094C0.620371 14.1554 0.5 15.2369 0.5 16.5875C0.5 20.9803 2.22402 25.1259 5.35174 28.2627C8.45614 31.3738 12.5274 33.0874 16.8181 33.0874C23.7568 33.0874 27.5 27.2773 27.5 21.8106C27.5019 18.992 26.5642 16.3616 24.8635 14.4027Z" fill="#48B8ED"/>
<path d="M28.6494 4.91246C25.5471 1.8011 21.4784 0.0874023 17.1906 0.0874023C10.2466 0.0874023 6.5 5.90574 6.5 11.3805C6.5 11.569 6.50388 11.7555 6.51358 11.9419C6.51552 11.9714 6.51745 12.0008 6.5194 12.0303C6.52716 12.1913 6.5388 12.3542 6.55433 12.5132C6.55627 12.5289 6.5582 12.5466 6.56014 12.5622C6.57761 12.737 6.597 12.9117 6.62223 13.0864C6.62223 13.0864 6.62223 13.0923 6.62417 13.0942C6.6494 13.2787 6.68044 13.4614 6.71342 13.6439C7.07624 15.5853 7.90472 17.3559 9.13675 18.7752C10.4076 20.2376 12.6582 21.8355 16.3116 22.0553C16.7811 22.0828 17.1789 21.7079 17.1789 21.2329V16.5884C15.4638 16.5884 14.1308 16.1998 13.217 15.1495C12.3905 14.1994 11.9365 12.8607 11.9365 11.3825C11.9326 8.58916 13.5779 5.5838 17.1906 5.5838C23.0869 5.5838 28.0674 10.6229 28.0674 16.5884C28.0674 17.619 27.9239 18.6181 27.66 19.5643C27.7958 20.2926 27.8656 21.0444 27.8656 21.81C27.8656 27.2769 24.1249 33.0874 17.1906 33.0874C26.1835 33.0874 33.5 25.6849 33.5 16.5864C33.4981 12.1952 31.7771 8.04933 28.6494 4.91246Z" fill="white"/>
</g>
</g>
<defs>
<clipPath id="clip0_2002_3886">
<rect width="150" height="33" fill="white" transform="translate(0.5 0.0874023)"/>
</clipPath>
</defs>
</svg>
