<svg width="116" height="32" viewBox="0 0 116 32" fill="none" xmlns="http://www.w3.org/2000/svg">
<g clip-path="url(#clip0_3175_58377)">
<path d="M41.9541 15.4585C41.049 15.1196 40.2254 14.6076 39.4835 13.9223L41.2027 12.0188C41.4683 12.2929 41.7548 12.5347 42.0622 12.7422C42.3696 12.9515 42.6789 13.121 42.9863 13.2523C43.2937 13.3836 43.6011 13.4807 43.9066 13.5473C44.2121 13.614 44.51 13.6463 44.8004 13.6463C45.252 13.6463 45.6334 13.5873 45.9484 13.4674C46.2633 13.3475 46.4967 13.1876 46.6485 12.9858C46.8003 12.784 46.8762 12.5442 46.8762 12.272C46.8762 12.0816 46.844 11.9122 46.7776 11.7618C46.7112 11.6134 46.6201 11.482 46.5043 11.3697C46.3886 11.2574 46.2197 11.1451 45.9977 11.0347C45.7757 10.9243 45.5461 10.8253 45.307 10.7397C45.0679 10.654 44.7529 10.5512 44.362 10.4313C44.011 10.319 43.6998 10.2143 43.4285 10.1191C43.1571 10.0239 42.8611 9.90401 42.5442 9.75744C42.2273 9.61087 41.9503 9.4662 41.7188 9.31963C41.4873 9.17306 41.2558 8.99794 41.0281 8.79236C40.8004 8.58678 40.6144 8.36978 40.4721 8.13945C40.3298 7.90913 40.2141 7.64454 40.1249 7.34378C40.0357 7.04303 39.9902 6.72324 39.9902 6.38251C39.9902 5.69724 40.1951 5.07289 40.6068 4.50564C41.0186 3.9403 41.5784 3.49488 42.2862 3.16937C42.9958 2.84387 43.7776 2.67636 44.6315 2.66494C46.381 2.64781 48.0053 3.19222 49.5024 4.30006L47.8516 6.23975C46.6922 5.38887 45.641 4.96249 44.6998 4.96249C44.1894 4.96249 43.7738 5.0786 43.4531 5.31083C43.1324 5.54306 42.9674 5.86095 42.9617 6.26639C42.9617 6.42819 42.9939 6.57286 43.0603 6.7042C43.1267 6.83555 43.2159 6.95356 43.3279 7.05635C43.4398 7.16105 43.6087 7.26764 43.8307 7.37805C44.0527 7.48845 44.2747 7.58743 44.4968 7.67309C44.7188 7.75875 45.0186 7.86725 45.3962 7.99859C46.603 8.42117 47.4 8.72764 47.7908 8.91799C48.6922 9.35961 49.2918 9.90401 49.5897 10.5531C49.7756 10.9586 49.8686 11.4287 49.8686 11.9655C49.8686 12.5137 49.7662 13.0163 49.5612 13.4712C49.3563 13.9261 49.0849 14.3049 48.7453 14.6057C48.4056 14.9065 48.0147 15.1634 47.5669 15.3747C47.1191 15.586 46.6599 15.7383 46.1912 15.8297C45.7225 15.921 45.2406 15.9686 44.7491 15.9686C43.7909 15.9667 42.8592 15.7973 41.9541 15.4585Z" fill="#48B8ED"/>
<path d="M52.295 2.81543H57.6422C58.4961 2.81543 59.2513 2.92203 59.9041 3.13712C60.5568 3.35222 61.0824 3.65488 61.479 4.04891C61.8775 4.44294 62.1754 4.89788 62.3727 5.41563C62.572 5.93339 62.6706 6.51206 62.6706 7.14973C62.6706 7.85213 62.5454 8.47268 62.293 9.00756C62.0407 9.54436 61.682 9.98407 61.2153 10.3305C60.7485 10.6769 60.1906 10.9358 59.5454 11.1071C58.8984 11.2804 58.1754 11.366 57.3728 11.366H55.1166V15.8145H52.295V2.81543ZM57.0161 9.08751C57.8908 9.08751 58.5587 8.90858 59.0198 8.55072C59.4809 8.19286 59.7105 7.70746 59.7105 7.09453C59.7105 6.4816 59.4866 5.9962 59.0388 5.63834C58.591 5.28048 57.9572 5.10155 57.1356 5.10155H55.1185V9.08561H57.0161V9.08751Z" fill="#48B8ED"/>
<path d="M64.9972 2.81543H67.87V8.44412H73.7846V2.81543H76.6669V15.8145H73.7846V10.7398H67.87V15.8145H64.9972V2.81543Z" fill="#48B8ED"/>
<path d="M79.8273 2.81543H89.072V5.12059H82.6508V8.23854H87.7988V10.5075H82.6508V13.5189H89.4989V15.8145H79.8273V2.81543Z" fill="#48B8ED"/>
<path d="M99.764 15.8145L96.5231 11.366H94.8627V15.8145H92.0392V2.81543H97.506C98.3542 2.81543 99.1037 2.92203 99.7564 3.13712C100.409 3.35222 100.937 3.65488 101.337 4.04891C101.737 4.44294 102.039 4.89788 102.242 5.41563C102.445 5.93339 102.546 6.51206 102.546 7.14973C102.546 7.82929 102.424 8.4327 102.183 8.95807C101.942 9.48535 101.603 9.92125 101.17 10.2677C100.736 10.6122 100.208 10.8787 99.5838 11.0634V11.0995L103.153 15.8164H99.764V15.8145ZM94.8646 9.09703H96.8722C97.7394 9.09703 98.4092 8.9162 98.8798 8.55643C99.3504 8.19667 99.5857 7.70937 99.5857 7.09644C99.5857 6.4835 99.3579 5.99811 98.9044 5.64025C98.4509 5.28239 97.8134 5.10346 96.9918 5.10346H94.8646V9.09703Z" fill="#48B8ED"/>
<path d="M105.329 2.81543H114.574V5.12059H108.153V8.23854H113.301V10.5075H108.153V13.5189H115.001V15.8145H105.329V2.81543Z" fill="#48B8ED"/>
<path d="M40.1154 19.001H43.6884C44.269 19.001 44.7794 19.0809 45.2178 19.2408C45.6561 19.4007 46.009 19.6253 46.2747 19.9128C46.5384 20.2021 46.7377 20.5352 46.8686 20.9121C46.9995 21.289 47.0659 21.7116 47.0659 22.176C47.0659 22.7071 46.9787 23.1754 46.806 23.5808C46.6333 23.9863 46.3866 24.3175 46.066 24.5726C45.7453 24.8276 45.3696 25.0199 44.935 25.1455C44.5024 25.2731 44.0147 25.3359 43.4721 25.3359H41.3658V29.2438H40.1173V19.001H40.1154ZM43.3582 24.1843C43.7738 24.1843 44.14 24.1329 44.4531 24.0339C44.7662 23.933 45.0166 23.7902 45.2045 23.6037C45.3923 23.419 45.5328 23.2039 45.6257 22.9622C45.7187 22.7204 45.7661 22.4502 45.7661 22.1494C45.7661 21.5117 45.5707 21.0187 45.1798 20.6742C44.7889 20.3296 44.2481 20.1564 43.5555 20.1564H41.3658V24.1843H43.3582Z" fill="#303A5D"/>
<path d="M54.6561 26.754H50.1021L49.197 29.2457H47.8839L51.7435 19.001H52.9996L56.8876 29.2457H55.5688L54.6561 26.754ZM54.2558 25.6557L52.3886 20.5371H52.3601L50.5006 25.6557H54.2558Z" fill="#303A5D"/>
<path d="M65.0539 29.2457L62.4506 25.3378H60.5417V29.2457H59.2931V19.001H62.9154C63.4904 19.001 63.997 19.0809 64.4316 19.2408C64.8661 19.4007 65.219 19.6234 65.4885 19.909C65.7579 20.1945 65.9591 20.5276 66.0919 20.9083C66.2247 21.289 66.2911 21.7116 66.2911 22.176C66.2911 23.025 66.0767 23.7046 65.6498 24.2147C65.2209 24.7248 64.6232 25.0618 63.8566 25.2255L63.849 25.2388L66.5644 29.2457H65.0539ZM60.5398 24.1843H62.5758C63.386 24.1843 63.9894 23.9996 64.3898 23.6322C64.7902 23.2649 64.9894 22.7699 64.9894 22.1494C64.9894 21.506 64.7921 21.013 64.3993 20.6704C64.0065 20.3277 63.4562 20.1564 62.7504 20.1564H60.5398V24.1843Z" fill="#303A5D"/>
<path d="M71.1853 20.1564H68.1322V19.001H75.523V20.1564H72.4357V29.2457H71.1872V20.1564H71.1853Z" fill="#303A5D"/>
<path d="M86.2571 19.001V29.2457H84.9877L79.2686 21.171H79.2401V29.2457H77.9916V19.001H79.2269L84.982 27.1614H85.0086V19.001H86.2571Z" fill="#303A5D"/>
<path d="M89.5743 19.001H95.821V20.1564H90.8305V23.5846H94.9291V24.7401H90.8305V28.0922H96.1227V29.2476H89.5743V19.001Z" fill="#303A5D"/>
<path d="M104.648 29.2457L102.044 25.3378H100.135V29.2457H98.8868V19.001H102.509C103.084 19.001 103.591 19.0809 104.025 19.2408C104.46 19.4007 104.813 19.6234 105.082 19.909C105.352 20.1945 105.553 20.5276 105.686 20.9083C105.818 21.289 105.885 21.7116 105.885 22.176C105.885 23.025 105.67 23.7046 105.244 24.2147C104.815 24.7248 104.217 25.0618 103.45 25.2255L103.443 25.2388L106.158 29.2457H104.648ZM100.134 24.1843H102.17C102.98 24.1843 103.583 23.9996 103.984 23.6322C104.384 23.2649 104.583 22.7699 104.583 22.1494C104.583 21.506 104.386 21.013 103.993 20.6704C103.6 20.3277 103.05 20.1564 102.344 20.1564H100.134V24.1843Z" fill="#303A5D"/>
<path d="M109.852 28.943C109.226 28.6804 108.666 28.2844 108.175 27.7534L108.968 26.7883C109.329 27.2299 109.761 27.5668 110.266 27.799C110.771 28.0313 111.283 28.1474 111.803 28.1474C112.435 28.1474 112.941 28.0084 113.323 27.7286C113.704 27.4488 113.894 27.0681 113.894 26.5846C113.894 26.063 113.682 25.6538 113.255 25.353C113.006 25.1741 112.53 24.9533 111.822 24.6906L111.814 24.683H111.807H111.799L111.792 24.6754H111.784L111.776 24.6678H111.769H111.761L111.754 24.6601H111.746H111.738L111.731 24.6525H111.723L111.716 24.6449H111.708H111.701L111.693 24.6373H111.685L111.678 24.6297H111.67H111.663L111.655 24.6221H111.647H111.64L111.632 24.6145H111.625L111.617 24.6068H111.609H111.602L111.589 24.5992C111.33 24.5002 111.114 24.4165 110.94 24.3461C110.765 24.2756 110.56 24.1843 110.329 24.072C110.097 23.9596 109.904 23.8492 109.75 23.7445C109.596 23.638 109.435 23.5104 109.27 23.3562C109.103 23.204 108.972 23.046 108.877 22.8804C108.78 22.7167 108.702 22.5244 108.638 22.3074C108.573 22.0904 108.543 21.8582 108.543 21.6145C108.543 21.112 108.68 20.6532 108.953 20.2383C109.226 19.8233 109.602 19.4959 110.08 19.2599C110.558 19.0219 111.084 18.9039 111.659 18.9039C112.22 18.9001 112.776 19.001 113.329 19.2066C113.881 19.4122 114.401 19.711 114.886 20.1012L114.135 21.072C113.737 20.7427 113.323 20.4953 112.89 20.3258C112.458 20.1564 112.044 20.0727 111.651 20.0727C111.329 20.0727 111.033 20.1279 110.763 20.2383C110.494 20.3487 110.274 20.5181 110.099 20.7446C109.926 20.973 109.839 21.2414 109.839 21.5498C109.835 22.0104 110.057 22.3873 110.505 22.6824C110.754 22.8518 111.245 23.0764 111.979 23.3581L111.987 23.3658H111.995L112.002 23.3734H112.01H112.017L112.025 23.381C112.867 23.7103 113.423 23.9463 113.695 24.0929C114.346 24.4412 114.778 24.8695 114.993 25.3816C115.12 25.6861 115.182 26.0383 115.182 26.438C115.182 26.8035 115.12 27.1461 114.996 27.4621C114.873 27.7781 114.702 28.0503 114.488 28.2749C114.274 28.4995 114.021 28.6937 113.733 28.8555C113.444 29.0173 113.135 29.1372 112.803 29.2153C112.471 29.2933 112.127 29.3314 111.771 29.3314C111.124 29.3371 110.479 29.2057 109.852 28.943Z" fill="#303A5D"/>
<path d="M23.8119 13.8823C22.5671 12.4623 20.3622 10.909 16.7854 10.694C16.3262 10.6673 15.9372 11.0309 15.9372 11.4915V15.999C17.6184 15.999 18.9258 16.3778 19.8214 17.4C20.6317 18.3251 21.0776 19.6271 21.0776 21.0643C21.0776 23.7635 19.4723 26.6702 15.9505 26.6702C10.184 26.6702 5.31304 21.7838 5.31304 16.001C5.31304 15.013 5.44966 14.0575 5.70203 13.1495C5.56731 12.4376 5.4971 11.7028 5.4971 10.9528C5.4952 5.64202 9.1593 0 15.9505 0C8.23901 0 1.78936 5.51639 0.316885 12.8221C0.117646 13.6425 0 14.6913 0 16.001C0 20.261 1.68499 24.2812 4.74189 27.3231C7.77601 30.3401 11.7551 32.0019 15.9486 32.0019C22.7303 32.0019 26.3887 26.3675 26.3887 21.0662C26.3906 18.3328 25.4741 15.782 23.8119 13.8823Z" fill="#48B8ED"/>
<path d="M27.1571 4.67884C24.123 1.66177 20.1439 0 15.9504 0C9.15922 0 5.49512 5.64202 5.49512 10.9509C5.49512 11.1337 5.49891 11.3145 5.5084 11.4953C5.5103 11.5239 5.51219 11.5524 5.51409 11.581C5.52168 11.7371 5.53307 11.8951 5.54825 12.0493C5.55015 12.0645 5.55204 12.0816 5.55394 12.0968C5.57102 12.2663 5.58999 12.4357 5.61466 12.6051C5.61466 12.607 5.61466 12.6108 5.61656 12.6127C5.64123 12.7916 5.67159 12.9687 5.70384 13.1457C6.05868 15.0283 6.86892 16.7452 8.07384 18.1215C9.31671 19.5396 11.5178 21.0891 15.0908 21.3022C15.55 21.3289 15.939 20.9653 15.939 20.5047V16.001C14.2616 16.001 12.958 15.6241 12.0643 14.6057C11.256 13.6844 10.812 12.3862 10.812 10.9528C10.8082 8.24413 12.4172 5.32984 15.9504 5.32984C21.717 5.32984 26.5879 10.2162 26.5879 16.001C26.5879 17.0003 26.4475 17.9692 26.1894 18.8867C26.3222 19.5929 26.3905 20.3219 26.3905 21.0643C26.3905 26.3656 22.7321 32 15.9504 32C24.7454 32 31.9009 24.8218 31.9009 15.999C31.899 11.7409 30.2159 7.72066 27.1571 4.67884Z" fill="#303A5D"/>
</g>
<defs>
<clipPath id="clip0_3175_58377">
<rect width="115.2" height="32" fill="white"/>
</clipPath>
</defs>
</svg>
