<svg width="147" height="32" viewBox="0 0 147 32" fill="none" xmlns="http://www.w3.org/2000/svg">
<g clip-path="url(#clip0_4418_36542)">
<path d="M42.8709 24.0868C41.6302 23.6223 40.5014 22.9204 39.4844 21.9811L41.8409 19.3718C42.2051 19.7476 42.5978 20.0789 43.0192 20.3634C43.4406 20.6504 43.8645 20.8826 44.2859 21.0626C44.7073 21.2427 45.1287 21.3758 45.5474 21.4671C45.9662 21.5584 46.3746 21.6028 46.7725 21.6028C47.3916 21.6028 47.9144 21.5219 48.3461 21.3575C48.7779 21.1931 49.0979 20.9739 49.3059 20.6973C49.514 20.4208 49.6181 20.092 49.6181 19.7189C49.6181 19.4579 49.5738 19.2257 49.4828 19.0196C49.3918 18.8161 49.2669 18.636 49.1083 18.4821C48.9496 18.3281 48.7181 18.1742 48.4138 18.0228C48.1095 17.8715 47.7947 17.7358 47.467 17.6184C47.1393 17.501 46.7075 17.3601 46.1717 17.1957C45.6905 17.0417 45.2639 16.8982 44.892 16.7678C44.52 16.6373 44.1142 16.4729 43.6799 16.272C43.2455 16.0711 42.8657 15.8728 42.5484 15.6719C42.2311 15.471 41.9138 15.2309 41.6016 14.9491C41.2895 14.6673 41.0346 14.3699 40.8395 14.0541C40.6444 13.7384 40.4858 13.3757 40.3635 12.9635C40.2413 12.5512 40.1789 12.1128 40.1789 11.6458C40.1789 10.7064 40.4598 9.85059 41.0242 9.07302C41.5886 8.29807 42.3559 7.6875 43.3261 7.24131C44.2989 6.79513 45.3706 6.56551 46.541 6.54985C48.9392 6.52637 51.1657 7.27262 53.2179 8.79122L50.955 11.4501C49.3658 10.2837 47.9248 9.69925 46.6347 9.69925C45.935 9.69925 45.3653 9.85841 44.9258 10.1767C44.4862 10.4951 44.2599 10.9308 44.2521 11.4866C44.2521 11.7084 44.2963 11.9067 44.3874 12.0867C44.4784 12.2668 44.6006 12.4286 44.7541 12.5695C44.9076 12.713 45.1391 12.8591 45.4434 13.0104C45.7477 13.1618 46.052 13.2974 46.3563 13.4149C46.6607 13.5323 47.0716 13.681 47.5892 13.861C49.2435 14.4403 50.336 14.8604 50.8718 15.1213C52.1073 15.7267 52.9292 16.4729 53.3376 17.3627C53.5925 17.9185 53.7199 18.563 53.7199 19.2988C53.7199 20.0502 53.5795 20.7391 53.2985 21.3627C53.0176 21.9863 52.6457 22.5056 52.1801 22.9178C51.7145 23.3301 51.1787 23.6824 50.5648 23.972C49.951 24.2616 49.3215 24.4704 48.6791 24.5956C48.0366 24.7208 47.376 24.7861 46.7023 24.7861C45.3888 24.7835 44.1116 24.5512 42.8709 24.0868Z" fill="#49B8ED"/>
<path d="M57.0469 6.75586H64.3766C65.5471 6.75586 66.5823 6.90198 67.4771 7.19683C68.3718 7.49167 69.0923 7.90655 69.6359 8.44667C70.1822 8.98679 70.5905 9.61041 70.861 10.3201C71.1341 11.0299 71.2694 11.8231 71.2694 12.6972C71.2694 13.66 71.0977 14.5106 70.7518 15.2438C70.4059 15.9796 69.9143 16.5824 69.2744 17.0573C68.6345 17.5322 67.8698 17.887 66.9855 18.1219C66.0985 18.3593 65.1075 18.4767 64.0073 18.4767H60.9146V24.5746H57.0469V6.75586ZM63.5183 15.3534C64.7174 15.3534 65.6329 15.1081 66.265 14.6176C66.897 14.1271 67.2118 13.4617 67.2118 12.6215C67.2118 11.7813 66.9048 11.116 66.291 10.6254C65.6772 10.1349 64.8084 9.8896 63.6821 9.8896H60.9172V15.3508H63.5183V15.3534Z" fill="#49B8ED"/>
<path d="M74.4531 6.75586H78.3911V14.4715H86.4986V6.75586H90.4496V24.5746H86.4986V17.6183H78.3911V24.5746H74.4531V6.75586Z" fill="#49B8ED"/>
<path d="M94.7891 6.75586H107.461V9.91569H98.6594V14.1897H105.716V17.2999H98.6594V21.4278H108.047V24.5746H94.7891V6.75586Z" fill="#49B8ED"/>
<path d="M122.112 24.5748L117.67 18.477H115.394V24.5748H111.523V6.7561H119.017C120.18 6.7561 121.207 6.90222 122.102 7.19707C122.997 7.49192 123.72 7.90679 124.269 8.44691C124.817 8.98703 125.231 9.61065 125.509 10.3204C125.788 11.0301 125.925 11.8233 125.925 12.6974C125.925 13.6289 125.759 14.4561 125.429 15.1762C125.098 15.899 124.633 16.4965 124.04 16.9714C123.444 17.4437 122.721 17.809 121.865 18.0621V18.1117L126.758 24.5775H122.112V24.5748ZM115.396 15.3667H118.148C119.337 15.3667 120.255 15.1188 120.9 14.6257C121.545 14.1325 121.868 13.4646 121.868 12.6244C121.868 11.7842 121.556 11.1188 120.934 10.6283C120.312 10.1377 119.438 9.89245 118.312 9.89245H115.396V15.3667Z" fill="#49B8ED"/>
<path d="M129.742 6.7561H142.415V9.91594H133.613V14.1899H140.669V17.3002H133.613V21.4281H143V24.5748H129.742V6.7561Z" fill="#49B8ED"/>
<path d="M23.8119 13.8823C22.5671 12.4623 20.3622 10.909 16.7854 10.694C16.3262 10.6673 15.9372 11.0309 15.9372 11.4915V15.999C17.6184 15.999 18.9258 16.3778 19.8214 17.4C20.6317 18.3251 21.0776 19.6271 21.0776 21.0643C21.0776 23.7635 19.4723 26.6702 15.9505 26.6702C10.184 26.6702 5.31304 21.7838 5.31304 16.001C5.31304 15.013 5.44966 14.0575 5.70203 13.1495C5.56731 12.4376 5.4971 11.7028 5.4971 10.9528C5.4952 5.64202 9.1593 0 15.9505 0C8.23901 0 1.78936 5.51639 0.316885 12.8221C0.117646 13.6425 0 14.6913 0 16.001C0 20.261 1.68499 24.2812 4.74189 27.3231C7.77601 30.3401 11.7551 32.0019 15.9486 32.0019C22.7303 32.0019 26.3887 26.3675 26.3887 21.0662C26.3906 18.3328 25.4741 15.782 23.8119 13.8823Z" fill="#48B8ED"/>
<path d="M27.1542 4.67884C24.1201 1.66177 20.141 0 15.9475 0C9.15629 0 5.49219 5.64202 5.49219 10.9509C5.49219 11.1337 5.49598 11.3145 5.50547 11.4953C5.50737 11.5239 5.50927 11.5524 5.51116 11.581C5.51875 11.7371 5.53014 11.8951 5.54532 12.0493C5.54722 12.0645 5.54911 12.0816 5.55101 12.0968C5.56809 12.2663 5.58706 12.4357 5.61173 12.6051C5.61173 12.607 5.61173 12.6108 5.61363 12.6127C5.6383 12.7916 5.66866 12.9687 5.70091 13.1457C6.05575 15.0283 6.86599 16.7452 8.07091 18.1215C9.31378 19.5396 11.5149 21.0891 15.0879 21.3022C15.5471 21.3289 15.9361 20.9653 15.9361 20.5047V16.001C14.2587 16.001 12.9551 15.6241 12.0614 14.6057C11.253 13.6844 10.809 12.3862 10.809 10.9528C10.8052 8.24413 12.4143 5.32984 15.9475 5.32984C21.714 5.32984 26.585 10.2162 26.585 16.001C26.585 17.0003 26.4445 17.9692 26.1865 18.8867C26.3193 19.5929 26.3876 20.3219 26.3876 21.0643C26.3876 26.3656 22.7292 32 15.9475 32C24.7425 32 31.898 24.8218 31.898 15.999C31.8961 11.7409 30.213 7.72066 27.1542 4.67884Z" fill="#303A5D"/>
</g>
<defs>
<clipPath id="clip0_4418_36542">
<rect width="147" height="32" fill="white"/>
</clipPath>
</defs>
</svg>
