<svg width="697" height="667" viewBox="0 0 697 667" fill="none" xmlns="http://www.w3.org/2000/svg">
<path d="M328.188 442.604V595.989C328.175 608.737 323.108 620.959 314.099 629.974C305.091 638.989 292.876 644.061 280.135 644.075H48.0527C38.5811 644.086 29.5005 647.855 22.8031 654.557C16.1056 661.258 12.3382 670.344 12.3277 679.82V711H0V679.82C0.0145055 667.073 5.08181 654.853 14.0903 645.839C23.0988 636.825 35.3128 631.755 48.0527 631.741H280.135C289.607 631.729 298.688 627.958 305.385 621.255C312.083 614.553 315.849 605.466 315.86 595.989V442.604H328.188Z" fill="#2C447D"/>
<path d="M342.059 480.63V505.212C342.059 508.03 340.94 510.733 338.948 512.726C336.957 514.719 334.255 515.839 331.439 515.839H312.605C311.068 515.84 309.549 515.507 308.154 514.863C306.759 514.218 305.52 513.278 304.525 512.106V512.103C302.884 510.183 301.983 507.739 301.987 505.212V480.63H342.059Z" fill="#2B3872"/>
<path d="M362.992 423.33V472.431C362.992 476.073 361.546 479.566 358.972 482.14C356.398 484.715 352.907 486.162 349.267 486.161H294.776C291.137 486.161 287.647 484.714 285.074 482.14C282.5 479.565 281.055 476.073 281.054 472.431V423.33H362.992Z" fill="#4656A1"/>
<path d="M365.759 423.33H278.285C277.248 423.33 276.253 422.917 275.519 422.183C274.785 421.449 274.373 420.454 274.373 419.415V416.434C274.373 415.395 274.785 414.4 275.519 413.666C276.253 412.932 277.248 412.519 278.285 412.519H365.759C366.797 412.519 367.792 412.932 368.525 413.666C369.259 414.4 369.671 415.395 369.671 416.434V419.415C369.671 420.454 369.259 421.449 368.525 422.183C367.792 422.917 366.797 423.33 365.759 423.33Z" fill="#38488C"/>
<path d="M309.725 412.52H295.761V379.103C295.761 378.186 295.942 377.277 296.292 376.43C296.643 375.582 297.158 374.812 297.806 374.163C298.454 373.515 299.224 373 300.071 372.649C300.918 372.298 301.826 372.117 302.743 372.117C303.66 372.117 304.568 372.298 305.415 372.649C306.262 373 307.032 373.515 307.68 374.163C308.329 374.812 308.843 375.582 309.194 376.43C309.545 377.277 309.725 378.186 309.725 379.103V412.52Z" fill="#232851"/>
<path d="M339.702 372.117H342.902C344.33 372.117 345.699 372.685 346.708 373.694C347.717 374.704 348.285 376.074 348.285 377.502V412.52H334.32V377.502C334.32 376.074 334.887 374.704 335.896 373.694C336.906 372.685 338.275 372.117 339.702 372.117Z" fill="#232851"/>
<path d="M362.992 423.33V472.431C362.992 476.073 361.546 479.566 358.972 482.14C356.398 484.715 352.907 486.162 349.267 486.161H294.776C291.137 486.161 287.647 484.714 285.074 482.14C282.5 479.565 281.055 476.073 281.054 472.431C339.892 468.341 345.296 423.33 345.296 423.33H362.992Z" fill="#38488C"/>
<path d="M362.992 423.33H281.054V427.289H362.992V423.33Z" fill="#2B3872"/>
<path d="M362.993 444.085V472.433C362.992 476.075 361.546 479.567 358.972 482.142C356.398 484.717 352.907 486.163 349.268 486.163H311.015C349.644 486.163 362.993 444.085 362.993 444.085Z" fill="#2B3872"/>
<path d="M342.058 486.162H301.987V488.728H342.058V486.162Z" fill="#232851"/>
<path d="M309.725 407.628H295.761V412.52H309.725V407.628Z" fill="#15172D"/>
<path d="M348.285 407.628H334.32V412.52H348.285V407.628Z" fill="#15172D"/>
<path d="M342.059 486.162V505.212C342.058 508.031 340.939 510.734 338.948 512.727C336.956 514.719 334.255 515.839 331.438 515.839H312.604C311.067 515.841 309.548 515.508 308.153 514.863C306.758 514.219 305.519 513.278 304.524 512.107V512.104C333.879 515.707 338.362 486.162 338.362 486.162H342.059Z" fill="#232851"/>
<path d="M734.088 0V12.3364H363.916C354.443 12.3464 345.362 16.1157 338.664 22.8173C331.967 29.5188 328.199 38.6052 328.189 48.0827V210.185H315.857V48.0827C315.872 35.3344 320.94 23.1124 329.949 14.0983C338.959 5.08412 351.174 0.0139255 363.916 0H734.088Z" fill="#2C447D"/>
<path d="M342.059 196.302V171.72C342.059 168.902 340.94 166.199 338.948 164.206C336.957 162.214 334.255 161.094 331.439 161.094H312.605C311.068 161.092 309.549 161.425 308.154 162.07C306.759 162.714 305.52 163.655 304.525 164.826V164.829C302.884 166.749 301.983 169.194 301.987 171.72V196.302H342.059Z" fill="#2B3872"/>
<path d="M362.992 253.603V204.501C362.992 202.698 362.637 200.912 361.947 199.247C361.257 197.581 360.246 196.067 358.972 194.792C357.697 193.517 356.184 192.506 354.519 191.816C352.854 191.126 351.069 190.771 349.267 190.771H294.776C291.137 190.772 287.647 192.218 285.074 194.793C282.5 197.368 281.055 200.86 281.054 204.501V253.603H362.992Z" fill="#4656A1"/>
<path d="M365.759 264.413H278.285C277.248 264.413 276.253 264.001 275.519 263.267C274.785 262.533 274.373 261.537 274.373 260.499V257.517C274.373 257.003 274.474 256.494 274.671 256.019C274.867 255.544 275.156 255.113 275.519 254.749C275.882 254.386 276.314 254.097 276.788 253.901C277.263 253.704 277.771 253.603 278.285 253.603H365.759C366.797 253.603 367.792 254.015 368.525 254.749C369.259 255.483 369.671 256.479 369.671 257.517V260.499C369.671 261.537 369.259 262.533 368.525 263.267C367.792 264.001 366.797 264.413 365.759 264.413Z" fill="#38488C"/>
<path d="M362.992 253.603V204.501C362.992 202.698 362.637 200.912 361.947 199.247C361.257 197.581 360.246 196.067 358.972 194.792C357.697 193.517 356.184 192.506 354.519 191.816C352.854 191.126 351.069 190.771 349.267 190.771H294.776C291.137 190.772 287.647 192.218 285.074 194.793C282.5 197.368 281.055 200.86 281.054 204.501C339.892 208.592 345.296 253.603 345.296 253.603H362.992Z" fill="#38488C"/>
<path d="M362.992 249.644H281.054V253.603H362.992V249.644Z" fill="#2B3872"/>
<path d="M362.993 232.849V204.501C362.992 202.698 362.637 200.912 361.947 199.247C361.258 197.581 360.247 196.067 358.972 194.792C357.698 193.517 356.185 192.506 354.519 191.816C352.854 191.126 351.07 190.771 349.268 190.771H311.015C349.644 190.771 362.993 232.849 362.993 232.849Z" fill="#2B3872"/>
<path d="M342.058 188.207H301.987V190.773H342.058V188.207Z" fill="#232851"/>
<path d="M342.059 190.771V171.72C342.058 168.902 340.939 166.199 338.948 164.206C336.956 162.214 334.255 161.094 331.438 161.094H312.604C311.067 161.092 309.549 161.425 308.153 162.07C306.758 162.714 305.52 163.655 304.524 164.826V164.829C333.879 161.226 338.362 190.771 338.362 190.771H342.059Z" fill="#232851"/>
<path d="M214.548 307.289H189.177C188.251 307.289 187.362 306.92 186.707 306.265C186.052 305.61 185.684 304.721 185.684 303.794C185.684 302.867 186.052 301.978 186.707 301.323C187.362 300.668 188.251 300.3 189.177 300.3H214.548C215.474 300.3 216.363 300.668 217.018 301.323C217.673 301.978 218.041 302.867 218.041 303.794C218.041 304.721 217.673 305.61 217.018 306.265C216.363 306.92 215.474 307.289 214.548 307.289Z" fill="#4656A1"/>
<path d="M246.75 275.069C246.291 275.069 245.837 274.979 245.413 274.803C244.99 274.628 244.605 274.37 244.28 274.046C243.956 273.721 243.699 273.336 243.523 272.912C243.348 272.488 243.257 272.034 243.257 271.575L243.257 246.189C243.257 245.263 243.625 244.374 244.28 243.718C244.935 243.063 245.824 242.695 246.75 242.695C247.676 242.695 248.565 243.063 249.22 243.718C249.875 244.374 250.242 245.263 250.242 246.189V271.575C250.242 272.034 250.152 272.488 249.977 272.912C249.801 273.336 249.544 273.721 249.22 274.046C248.895 274.37 248.51 274.628 248.087 274.803C247.663 274.979 247.209 275.069 246.75 275.069Z" fill="#4656A1"/>
<path d="M223.468 283.994C223.009 283.995 222.555 283.905 222.131 283.729C221.707 283.554 221.322 283.296 220.998 282.971L203.57 265.533C202.915 264.877 202.547 263.988 202.547 263.062C202.547 262.135 202.915 261.246 203.57 260.591C204.225 259.935 205.113 259.567 206.039 259.567C206.965 259.567 207.854 259.935 208.509 260.591L225.937 278.029C226.426 278.518 226.758 279.14 226.893 279.818C227.028 280.496 226.959 281.199 226.694 281.837C226.43 282.476 225.982 283.022 225.408 283.406C224.834 283.79 224.159 283.994 223.468 283.994Z" fill="#4656A1"/>
<path d="M429.497 385.908H454.868C455.795 385.908 456.683 386.276 457.338 386.931C457.993 387.587 458.361 388.475 458.361 389.402C458.361 390.329 457.993 391.218 457.338 391.873C456.683 392.528 455.795 392.897 454.868 392.897H429.497C428.571 392.897 427.683 392.528 427.028 391.873C426.373 391.218 426.005 390.329 426.005 389.402C426.005 388.475 426.373 387.587 427.028 386.931C427.683 386.276 428.571 385.908 429.497 385.908Z" fill="#4656A1"/>
<path d="M397.297 418.126C397.755 418.126 398.209 418.217 398.633 418.392C399.057 418.568 399.442 418.825 399.766 419.15C400.09 419.474 400.348 419.859 400.523 420.283C400.699 420.707 400.789 421.162 400.789 421.621V447.006C400.789 447.933 400.421 448.822 399.766 449.477C399.111 450.133 398.223 450.501 397.297 450.501C396.37 450.501 395.482 450.133 394.827 449.477C394.172 448.822 393.804 447.933 393.804 447.006V421.621C393.804 420.694 394.172 419.805 394.827 419.15C395.482 418.494 396.37 418.126 397.297 418.126Z" fill="#4656A1"/>
<path d="M420.579 409.202C421.037 409.201 421.491 409.291 421.915 409.467C422.339 409.643 422.724 409.9 423.048 410.225L440.477 427.664C441.13 428.319 441.497 429.208 441.497 430.134C441.496 431.06 441.128 431.948 440.474 432.603C439.819 433.257 438.932 433.626 438.006 433.626C437.081 433.627 436.193 433.26 435.538 432.606L418.109 415.167C417.62 414.678 417.288 414.056 417.153 413.378C417.018 412.7 417.088 411.997 417.352 411.359C417.616 410.72 418.064 410.175 418.638 409.791C419.212 409.407 419.888 409.202 420.579 409.202Z" fill="#4656A1"/>
</svg>
