<svg width="744" height="800" viewBox="0 0 744 800" fill="none" xmlns="http://www.w3.org/2000/svg">
<path d="M795.537 739.035L754.345 789.683C750.979 793.809 747.032 797.424 742.627 800.415L722.028 775.093L699.376 747.164L694.64 741.327L630.587 662.455L561.166 576.986L492.444 492.331L451.332 441.69L423.053 406.797L367.39 338.297L354.213 322.068L284.792 236.599L216.033 151.825L149.546 69.9919L147.784 67.8228L146.609 66.3316L126.252 41.2063L177.657 -22L190.217 -6.63053L199.279 4.53343L201.041 6.70253L259.019 78.09L328.414 163.537L397.182 248.409L431.74 290.974L466.469 333.769L535.218 418.445L604.612 503.893L604.693 503.958L673.441 588.635L742.876 674.115L750.512 683.494L773.999 712.481L795.537 739.035Z" fill="#F7F7F9"/>
<path d="M604.792 504.084L492.382 492.215L422.97 406.708L535.379 418.577L604.792 504.084ZM466.601 333.854L354.192 321.985L284.795 236.514L397.204 248.383L466.601 333.854ZM328.426 163.66L216.017 151.791L146.62 66.319L259.029 78.1882L328.426 163.66ZM781.926 755.771L754.388 789.631C751.022 793.756 747.075 797.371 742.67 800.362L722.071 775.04L699.419 747.111L742.135 751.66L781.926 755.771ZM742.966 674.279L630.557 662.409L561.144 576.903L673.57 588.807L742.966 674.279Z" fill="#303A5D"/>
<path d="M946.26 200.792L929.964 218.892L894.998 257.52L883.528 270.125L810.26 351.039L736.334 432.681L663.195 513.47L589.263 595.25L515.963 676.103L442.083 757.721L368.883 838.541L344.315 865.698L302.339 911.934L300.373 914.093L294.903 920.191L276.348 940.678L237.411 864.865L261.482 838.295L263.448 836.136L289.523 807.33L363.404 725.712L436.672 644.798L510.521 563.196L583.798 482.297L657.724 400.656L702.774 350.855L730.9 319.789L759.607 288.074L918.225 206.608C924.678 203.276 931.745 201.302 938.99 200.808C941.41 200.634 943.839 200.628 946.26 200.792Z" fill="#F7F7F9"/>
<path d="M657.731 400.633L663.149 513.532L589.223 595.174L583.805 482.274L657.731 400.633ZM510.583 563.165L515.986 676.072L442.082 757.682L436.679 644.775L510.583 563.165ZM363.442 725.674L368.845 838.581L294.941 920.191L289.538 807.284L363.442 725.674ZM946.26 200.792L929.964 218.893L894.998 257.52L883.528 270.125L883.024 259.33L881.419 225.511L918.379 206.529C924.831 203.197 931.898 201.223 939.144 200.73C941.514 200.589 943.892 200.609 946.26 200.792ZM806.083 264.204L807.692 296.969L810.26 351.039L736.333 432.681L731.741 335.978L730.992 319.742L759.699 288.027L806.083 264.204Z" fill="#303A5D"/>
</svg>
